<?xml version="1.0" encoding="utf-8"?>
<!-- Generator: Adobe Illustrator 18.1.0, SVG Export Plug-In . SVG Version: 6.00 Build 0)  -->
<!DOCTYPE svg PUBLIC "-//W3C//DTD SVG 1.1//EN" "http://www.w3.org/Graphics/SVG/1.1/DTD/svg11.dtd">
<svg version="1.1" xmlns="http://www.w3.org/2000/svg" xmlns:xlink="http://www.w3.org/1999/xlink" x="0px" y="0px"
	 viewBox="-544.8 449.5 140 60" enable-background="new -544.8 449.5 140 60" xml:space="preserve">
<g id="Layer_1">
	<g>
		<path d="M-511,454.1c-1.2,0.5-2.4,0.9-3.8,1c1.4-0.8,2.4-2.1,2.9-3.6c-1.3,0.8-2.7,1.3-4.2,1.6c-1.2-1.3-2.9-2.1-4.8-2.1
			c-3.6,0-6.6,2.9-6.6,6.6c0,0.5,0.1,1,0.2,1.5c-5.5-0.3-10.3-2.9-13.5-6.9c-0.6,1-0.9,2.1-0.9,3.3c0,2.3,1.2,4.3,2.9,5.5
			c-1.1,0-2.1-0.3-3-0.8c0,0,0,0.1,0,0.1c0,3.2,2.3,5.8,5.3,6.4c-0.6,0.1-1.1,0.2-1.7,0.2c-0.4,0-0.8,0-1.2-0.1
			c0.8,2.6,3.3,4.5,6.1,4.6c-2.2,1.8-5.1,2.8-8.2,2.8c-0.5,0-1.1,0-1.6-0.1c2.9,1.9,6.4,3,10.1,3c12.1,0,18.7-10,18.7-18.7
			c0-0.3,0-0.6,0-0.8C-513,456.5-511.9,455.4-511,454.1z"/>
	</g>
	<g>
		<path fill="#1FAEEA" d="M-511,483.8c-1.2,0.5-2.4,0.9-3.8,1c1.4-0.8,2.4-2.1,2.9-3.6c-1.3,0.8-2.7,1.3-4.2,1.6
			c-1.2-1.3-2.9-2.1-4.8-2.1c-3.6,0-6.6,2.9-6.6,6.6c0,0.5,0.1,1,0.2,1.5c-5.5-0.3-10.3-2.9-13.5-6.9c-0.6,1-0.9,2.1-0.9,3.3
			c0,2.3,1.2,4.3,2.9,5.5c-1.1,0-2.1-0.3-3-0.8c0,0,0,0.1,0,0.1c0,3.2,2.3,5.8,5.3,6.4c-0.6,0.1-1.1,0.2-1.7,0.2
			c-0.4,0-0.8,0-1.2-0.1c0.8,2.6,3.3,4.5,6.1,4.6c-2.2,1.8-5.1,2.8-8.2,2.8c-0.5,0-1.1,0-1.6-0.1c2.9,1.9,6.4,3,10.1,3
			c12.1,0,18.7-10,18.7-18.7c0-0.3,0-0.6,0-0.8C-513,486.3-511.9,485.1-511,483.8z"/>
	</g>
	<g>
		<path d="M-490.2,475.3h-4.1v-10.9h-2.7v-3.8l2.7,0l0-2.2c0-3.1,0.8-4.9,4.4-4.9h3v3.8h-1.9c-1.4,0-1.5,0.5-1.5,1.5l0,1.9h3.4
			l-0.4,3.8l-3,0L-490.2,475.3z"/>
	</g>
	<g>
		<path fill="#3C5B97" d="M-490.2,504.7h-4.1v-10.9h-2.7V490l2.7,0l0-2.2c0-3.1,0.8-4.9,4.4-4.9h3v3.8h-1.9c-1.4,0-1.5,0.5-1.5,1.5
			l0,1.9h3.4l-0.4,3.8l-3,0L-490.2,504.7z"/>
	</g>
	<g>
		<path d="M-448.8,451.9h-16.7c-2.3,0-4.2,1.9-4.2,4.2v16.7c0,2.3,1.9,4.2,4.2,4.2h16.7c2.3,0,4.2-1.9,4.2-4.2l0-16.7
			C-444.6,453.7-446.5,451.9-448.8,451.9z M-461.6,462.8h9c0.2,0.5,0.3,1,0.3,1.6c0,2.6-2.1,4.8-4.8,4.8c-2.6,0-4.8-2.1-4.8-4.8
			C-461.9,463.8-461.8,463.3-461.6,462.8z M-447.7,462.8v6.2v3.1c0,0.9-0.7,1.6-1.6,1.6h-15.6c-0.9,0-1.6-0.7-1.6-1.6v-3.1v-6.2v0
			h2.4c-0.1,0.5-0.2,1-0.2,1.6c0,3.9,3.2,7.1,7.1,7.1c3.9,0,7.1-3.2,7.1-7.1c0-0.5-0.1-1.1-0.2-1.6L-447.7,462.8L-447.7,462.8z
			 M-447.7,457.3c0,0.4-0.4,0.8-0.8,0.8h-1.6c-0.4,0-0.8-0.4-0.8-0.8v-1.6c0-0.4,0.4-0.8,0.8-0.8h1.6c0.4,0,0.8,0.4,0.8,0.8V457.3z"
			/>
	</g>
	<g>
		<path fill="#225B7F" d="M-448.8,481.2h-16.7c-2.3,0-4.2,1.9-4.2,4.2v16.7c0,2.3,1.9,4.2,4.2,4.2h16.7c2.3,0,4.2-1.9,4.2-4.2
			l0-16.7C-444.6,483.1-446.5,481.2-448.8,481.2z M-461.6,492.2h9c0.2,0.5,0.3,1,0.3,1.6c0,2.6-2.1,4.8-4.8,4.8
			c-2.6,0-4.8-2.1-4.8-4.8C-461.9,493.2-461.8,492.7-461.6,492.2z M-447.7,492.2v6.2v3.1c0,0.9-0.7,1.6-1.6,1.6h-15.6
			c-0.9,0-1.6-0.7-1.6-1.6v-3.1v-6.2v0h2.4c-0.1,0.5-0.2,1-0.2,1.6c0,3.9,3.2,7.1,7.1,7.1c3.9,0,7.1-3.2,7.1-7.1
			c0-0.5-0.1-1.1-0.2-1.6L-447.7,492.2L-447.7,492.2z M-447.7,486.7c0,0.4-0.4,0.8-0.8,0.8h-1.6c-0.4,0-0.8-0.4-0.8-0.8v-1.6
			c0-0.4,0.4-0.8,0.8-0.8h1.6c0.4,0,0.8,0.4,0.8,0.8V486.7z"/>
	</g>
	<path d="M-419.9,471.1v-2.6c0-0.5-0.2-0.8-0.5-0.8c-0.2,0-0.4,0.1-0.5,0.3v3.7c0.2,0.2,0.4,0.3,0.5,0.3
		C-420.1,471.9-419.9,471.6-419.9,471.1L-419.9,471.1z M-416.9,469.1h1.1v-0.6c0-0.6-0.2-0.8-0.5-0.8c-0.4,0-0.5,0.3-0.5,0.8V469.1z
		 M-426.2,464.7v1.1h-1.3v6.9h-1.2v-6.9h-1.3v-1.1H-426.2L-426.2,464.7z M-422.9,466.8v6h-1.1v-0.7c-0.4,0.5-0.8,0.7-1.2,0.7
		c-0.4,0-0.6-0.2-0.7-0.5c-0.1-0.2-0.1-0.5-0.1-0.9v-4.7h1.1v4.4c0,0.3,0,0.4,0,0.4c0,0.2,0.1,0.2,0.2,0.2c0.2,0,0.4-0.2,0.7-0.5
		v-4.6L-422.9,466.8L-422.9,466.8z M-418.8,468.6v2.4c0,0.6,0,1-0.1,1.2c-0.1,0.5-0.4,0.7-0.9,0.7c-0.4,0-0.8-0.2-1.1-0.7v0.6h-1.1
		v-8.1h1.1v2.6c0.3-0.4,0.7-0.7,1.1-0.7c0.4,0,0.7,0.2,0.9,0.7C-418.9,467.6-418.8,468-418.8,468.6z M-414.7,470.7v0.1
		c0,0.3,0,0.6,0,0.7c0,0.2-0.1,0.5-0.2,0.7c-0.3,0.4-0.7,0.7-1.3,0.7c-0.6,0-1-0.2-1.3-0.6c-0.2-0.3-0.3-0.8-0.3-1.4v-2.1
		c0-0.6,0.1-1.1,0.3-1.4c0.3-0.4,0.8-0.6,1.3-0.6s1,0.2,1.3,0.6c0.2,0.3,0.3,0.8,0.3,1.4v1.2h-2.2v1.1c0,0.6,0.2,0.8,0.6,0.8
		c0.3,0,0.4-0.1,0.5-0.4c0,0,0,0,0-0.1c0-0.1,0-0.2,0-0.3v-0.4H-414.7L-414.7,470.7z M-422.1,457.2v2.5c0,0.6-0.2,0.8-0.5,0.8
		c-0.3,0-0.5-0.3-0.5-0.8v-2.5c0-0.6,0.2-0.8,0.5-0.8C-422.3,456.4-422.1,456.7-422.1,457.2z M-413.4,468.9c0-1.9-0.1-3.3-0.3-4.2
		c-0.1-0.5-0.3-0.9-0.7-1.2c-0.4-0.3-0.8-0.5-1.2-0.6c-1.5-0.2-3.7-0.2-6.7-0.2c-3,0-5.2,0.1-6.7,0.2c-0.5,0.1-0.9,0.2-1.3,0.6
		c-0.4,0.3-0.6,0.7-0.7,1.2c-0.2,0.9-0.3,2.4-0.3,4.2c0,1.9,0.1,3.3,0.3,4.2c0.1,0.5,0.3,0.9,0.7,1.2c0.4,0.3,0.8,0.5,1.2,0.6
		c1.5,0.2,3.7,0.2,6.7,0.2c3,0,5.2-0.1,6.7-0.2c0.5-0.1,0.9-0.2,1.2-0.6c0.4-0.3,0.6-0.7,0.7-1.2
		C-413.5,472.2-413.4,470.8-413.4,468.9z M-425.7,458.3l1.5-4.8h-1.2l-0.8,3.2l-0.9-3.2h-1.3l0.4,1.1c0,0,0.1,0.4,0.4,1.1
		c0.4,1.1,0.6,2,0.8,2.6v3.3h1.2V458.3L-425.7,458.3z M-421,459.6v-2.1c0-0.6-0.1-1.1-0.3-1.4c-0.3-0.4-0.7-0.6-1.3-0.6
		c-0.6,0-1,0.2-1.3,0.6c-0.2,0.3-0.3,0.8-0.3,1.4v2.1c0,0.6,0.1,1.1,0.3,1.4c0.3,0.4,0.7,0.6,1.3,0.6c0.5,0,1-0.2,1.3-0.6
		C-421.1,460.7-421,460.2-421,459.6z M-418,461.5h1.1v-6h-1.1v4.6c-0.2,0.3-0.5,0.5-0.7,0.5c-0.2,0-0.3-0.1-0.3-0.3c0,0,0-0.2,0-0.4
		v-4.4h-1.1v4.8c0,0.4,0,0.7,0.1,0.9c0.1,0.3,0.4,0.4,0.7,0.4c0.4,0,0.8-0.2,1.3-0.7V461.5L-418,461.5z M-409.8,456.6v15.7
		c0,1.3-0.5,2.4-1.4,3.3c-0.9,0.9-2,1.4-3.3,1.4h-15.7c-1.3,0-2.4-0.5-3.3-1.4c-0.9-0.9-1.4-2-1.4-3.3v-15.7c0-1.3,0.5-2.4,1.4-3.3
		c0.9-0.9,2-1.4,3.3-1.4h15.7c1.3,0,2.4,0.5,3.3,1.4C-410.3,454.2-409.8,455.3-409.8,456.6L-409.8,456.6z"/>
	<path fill="#DC2B2E" d="M-419.9,500.4v-2.6c0-0.5-0.2-0.8-0.5-0.8c-0.2,0-0.4,0.1-0.5,0.3v3.7c0.2,0.2,0.4,0.3,0.5,0.3
		C-420.1,501.2-419.9,500.9-419.9,500.4L-419.9,500.4z M-416.9,498.4h1.1v-0.6c0-0.6-0.2-0.8-0.5-0.8c-0.4,0-0.5,0.3-0.5,0.8V498.4z
		 M-426.2,494.1v1.1h-1.3v6.9h-1.2v-6.9h-1.3v-1.1H-426.2L-426.2,494.1z M-422.9,496.1v6h-1.1v-0.7c-0.4,0.5-0.8,0.7-1.2,0.7
		c-0.4,0-0.6-0.2-0.7-0.5c-0.1-0.2-0.1-0.5-0.1-0.9v-4.7h1.1v4.4c0,0.3,0,0.4,0,0.4c0,0.2,0.1,0.2,0.2,0.2c0.2,0,0.4-0.2,0.7-0.5
		v-4.6H-422.9L-422.9,496.1z M-418.8,497.9v2.4c0,0.6,0,1-0.1,1.2c-0.1,0.5-0.4,0.7-0.9,0.7c-0.4,0-0.8-0.2-1.1-0.7v0.6h-1.1v-8.1
		h1.1v2.6c0.3-0.4,0.7-0.7,1.1-0.7c0.4,0,0.7,0.2,0.9,0.7C-418.9,497-418.8,497.4-418.8,497.9z M-414.7,500v0.1c0,0.3,0,0.6,0,0.7
		c0,0.2-0.1,0.5-0.2,0.7c-0.3,0.4-0.7,0.7-1.3,0.7c-0.6,0-1-0.2-1.3-0.6c-0.2-0.3-0.3-0.8-0.3-1.4v-2.1c0-0.6,0.1-1.1,0.3-1.4
		c0.3-0.4,0.8-0.6,1.3-0.6s1,0.2,1.3,0.6c0.2,0.3,0.3,0.8,0.3,1.4v1.2h-2.2v1.1c0,0.6,0.2,0.8,0.6,0.8c0.3,0,0.4-0.1,0.5-0.4
		c0,0,0,0,0-0.1c0-0.1,0-0.2,0-0.3V500H-414.7L-414.7,500z M-422.1,486.6v2.5c0,0.6-0.2,0.8-0.5,0.8c-0.3,0-0.5-0.3-0.5-0.8v-2.5
		c0-0.6,0.2-0.8,0.5-0.8C-422.3,485.7-422.1,486-422.1,486.6z M-413.4,498.2c0-1.9-0.1-3.3-0.3-4.2c-0.1-0.5-0.3-0.9-0.7-1.2
		c-0.4-0.3-0.8-0.5-1.2-0.6c-1.5-0.2-3.7-0.2-6.7-0.2c-3,0-5.2,0.1-6.7,0.2c-0.5,0.1-0.9,0.2-1.3,0.6c-0.4,0.3-0.6,0.7-0.7,1.2
		c-0.2,0.9-0.3,2.4-0.3,4.2c0,1.9,0.1,3.3,0.3,4.2c0.1,0.5,0.3,0.9,0.7,1.2c0.4,0.3,0.8,0.5,1.2,0.6c1.5,0.2,3.7,0.2,6.7,0.2
		c3,0,5.2-0.1,6.7-0.2c0.5-0.1,0.9-0.2,1.2-0.6c0.4-0.3,0.6-0.7,0.7-1.2C-413.5,501.6-413.4,500.1-413.4,498.2z M-425.7,487.6
		l1.5-4.8h-1.2l-0.8,3.2l-0.9-3.2h-1.3l0.4,1.1c0,0,0.1,0.4,0.4,1.1c0.4,1.1,0.6,2,0.8,2.6v3.3h1.2V487.6L-425.7,487.6z M-421,488.9
		v-2.1c0-0.6-0.1-1.1-0.3-1.4c-0.3-0.4-0.7-0.6-1.3-0.6c-0.6,0-1,0.2-1.3,0.6c-0.2,0.3-0.3,0.8-0.3,1.4v2.1c0,0.6,0.1,1.1,0.3,1.4
		c0.3,0.4,0.7,0.6,1.3,0.6c0.5,0,1-0.2,1.3-0.6C-421.1,490-421,489.6-421,488.9z M-418,490.9h1.1v-6h-1.1v4.6
		c-0.2,0.3-0.5,0.5-0.7,0.5c-0.2,0-0.3-0.1-0.3-0.3c0,0,0-0.2,0-0.4v-4.4h-1.1v4.8c0,0.4,0,0.7,0.1,0.9c0.1,0.3,0.4,0.4,0.7,0.4
		c0.4,0,0.8-0.2,1.3-0.7V490.9L-418,490.9z M-409.8,485.9v15.7c0,1.3-0.5,2.4-1.4,3.3c-0.9,0.9-2,1.4-3.3,1.4h-15.7
		c-1.3,0-2.4-0.5-3.3-1.4c-0.9-0.9-1.4-2-1.4-3.3v-15.7c0-1.3,0.5-2.4,1.4-3.3s2-1.4,3.3-1.4h15.7c1.3,0,2.4,0.5,3.3,1.4
		S-409.8,484.6-409.8,485.9L-409.8,485.9z"/>
</g>
<g id="Layer_2">
</g>
</svg>
